<svg width="48" height="48" viewBox="0 0 48 48" fill="none" xmlns="http://www.w3.org/2000/svg">
<path fill-rule="evenodd" clip-rule="evenodd" d="M23.9999 5.60039C13.8379 5.60039 5.5999 13.8384 5.5999 24.0004C5.5999 34.1624 13.8379 42.4004 23.9999 42.4004C34.1619 42.4004 42.3999 34.1624 42.3999 24.0004C42.3999 13.8384 34.1619 5.60039 23.9999 5.60039ZM2.3999 24.0004C2.3999 12.071 12.0706 2.40039 23.9999 2.40039C35.9293 2.40039 45.5999 12.071 45.5999 24.0004C45.5999 35.9297 35.9293 45.6004 23.9999 45.6004C12.0706 45.6004 2.3999 35.9297 2.3999 24.0004Z" fill="#F7F8FC"/>
<path fill-rule="evenodd" clip-rule="evenodd" d="M15.9999 21.7376L23.9999 29.7376L31.9999 21.7376L34.2626 24.0004L25.1313 33.1318C24.5064 33.7566 23.4934 33.7566 22.8685 33.1318L13.7372 24.0004L15.9999 21.7376Z" fill="#F7F8FC"/>
<path fill-rule="evenodd" clip-rule="evenodd" d="M25.5999 14.4004V31.5H22.3999V14.4004H25.5999Z" fill="#F7F8FC"/>
</svg>
