<svg width="450" height="128" viewBox="0 0 450 128" fill="none" xmlns="http://www.w3.org/2000/svg">
<path d="M332.038 89.5086C323.051 89.5086 314.581 89.5614 306.115 89.4227C305.317 89.4091 304.136 88.3039 303.829 87.5248C301.463 81.5382 299.167 75.5301 297.079 69.477C296.38 67.4503 295.184 66.7883 292.659 66.8879C288.582 67.05 284.486 67.0207 280.405 66.8879C278.251 66.8176 277.218 67.4444 276.556 69.0904C274.122 75.1493 271.452 81.1457 269.065 87.2144C268.365 88.9932 267.293 89.5965 265.038 89.5633C258.021 89.4618 251 89.5321 243.983 89.5184C243.178 89.5184 242.374 89.4013 241.159 89.3056C242.93 84.9005 244.612 80.7181 246.292 76.5357C247.558 73.3861 248.753 70.2151 250.12 67.0929C250.74 65.6773 250.518 64.8631 248.856 63.9551C237.078 57.5116 230.047 48.4535 226.994 37.2652C226.772 36.4529 226.46 35.6582 225.929 34.0786C225.201 36.3456 224.733 37.8705 224.222 39.3857C220.891 49.2404 214.42 57.3788 204.097 63.3323C199.909 65.7476 195.236 67.0109 189.98 66.9582C179.821 66.8547 169.657 66.9816 159.495 66.8899C157.199 66.8684 156.18 67.5049 155.546 69.2837C153.373 75.4032 151.066 81.4952 148.624 87.5482C148.3 88.3527 146.913 89.4208 145.994 89.4364C137.722 89.577 129.445 89.5125 121.169 89.493C120.771 89.493 120.374 89.3446 119.566 89.1826C119.856 88.1672 120.06 87.2065 120.405 86.2791C129.551 61.7175 138.729 37.1656 147.828 12.5943C148.42 10.9951 149.337 10.4855 151.363 10.4953C167.392 10.5636 183.421 10.4289 199.449 10.5929C207.016 10.669 214.369 11.9616 219.842 16.642C222.367 18.8016 224.094 21.5781 226.213 24.1106C226.654 23.3218 227.137 22.3201 227.755 21.3731C231.83 15.1307 238.655 12.1686 246.878 11.0478C249.749 10.6573 252.707 10.5597 255.626 10.5499C270.397 10.5031 285.17 10.5577 299.94 10.5011C302.036 10.4933 303.067 10.9541 303.714 12.7056C312.841 37.4527 322.072 62.1724 331.267 86.9019C331.535 87.6205 331.704 88.3625 332.04 89.5067L332.038 89.5086ZM162.354 51.0056C168.841 51.0056 174.683 51.2262 180.481 50.9099C183.27 50.7576 186.482 50.123 188.625 48.7816C194.888 44.8588 198.884 39.6552 199.185 32.9949C199.358 29.1483 196.209 24.0521 189.398 24.4465C184.824 24.712 180.199 24.6144 175.61 24.4523C173.071 24.3625 171.906 25.0498 171.216 27.0532C169.414 32.2764 167.318 37.4312 165.372 42.6212C164.38 45.2669 163.459 47.9303 162.354 51.0075V51.0056ZM290.227 51.152C286.945 42.3185 283.983 34.1821 280.811 26.1023C280.53 25.3857 278.894 24.6105 277.849 24.5754C273.044 24.4094 268.226 24.4738 263.411 24.4992C257.262 24.5304 253.554 27.5745 253.377 32.5751C253.13 39.6279 261.061 51.4371 273.475 51.1735C278.855 51.0583 284.243 51.154 290.225 51.154L290.227 51.152Z" fill="#EE3D59"/>
<path d="M62.7111 51.0512H111.003C109.923 53.9879 109.002 56.5379 108.045 59.0802C106.821 62.3274 105.347 65.5257 104.407 68.8256C103.821 70.8836 102.576 71.237 100.278 71.2253C86.1404 71.1531 72.0008 71.2312 57.8633 71.1472C55.4665 71.1335 54.3109 71.6236 53.835 73.6543C53.1145 76.7336 51.8112 79.721 51.0305 82.7924C50.0457 86.6722 52.8115 89.5679 57.6943 90.1498C76.3864 92.3796 95.0067 91.9286 113.569 89.193C113.975 89.1325 114.396 89.1442 115.313 89.0954C114.866 90.5696 114.509 91.9169 114.046 93.2388C111.799 99.6921 109.457 106.124 107.301 112.599C106.73 114.313 105.788 115.086 103.533 115.237C95.1038 115.803 86.7017 116.693 78.2665 117.16C63.6278 117.968 49.0241 117.314 34.4282 116.189C23.3088 115.332 16.443 110.283 12.679 102.166C8.78087 93.764 9.3888 85.1492 11.6418 76.5324C14.7338 64.7056 19.0922 53.1971 24.7636 42.0165C25.1404 41.2726 25.455 40.5052 26.0746 39.1384C20.9471 40.3705 16.511 41.5343 12.0069 42.491C7.64466 43.4166 5.53733 47.7884 0.703091 47.9114C0.46808 47.6849 0.235011 47.4584 0 47.2319C1.40424 45.1797 2.69972 43.0709 4.23409 41.0852C11.7175 31.3925 20.5645 22.7601 33.1346 17.1152C43.1081 12.6379 53.8292 10.1406 65.2049 10.0761C90.0248 9.93554 114.847 10.0312 139.669 10.039C140.482 10.039 141.294 10.1249 142.506 10.1933C140.327 16.1272 138.247 21.8776 136.093 27.6104C135.151 30.1175 134.916 33.5326 132.789 34.8095C130.662 36.0865 126.578 35.2645 123.352 35.2684C108.795 35.2918 94.2337 35.4051 79.6805 35.2098C75.2599 35.1513 72.0144 36.3833 69.9595 39.2966C67.3919 42.9382 65.302 46.8023 62.7111 51.0512Z" fill="#F7F8FC"/>
<path d="M364.495 71.2471C367.468 71.2471 370.053 71.253 372.637 71.2471C386.25 71.212 399.863 71.2022 413.476 71.1046C415.545 71.089 417.765 70.9699 419.631 70.3431C421.399 69.7495 423.974 68.5037 424.085 67.4044C424.263 65.6334 423.281 63.265 421.727 62.0426C420.132 60.7871 417.275 60.0822 414.946 60.0393C405.214 59.8596 395.477 59.9534 386.011 57.6864C381.637 56.6398 377.741 55.109 374.623 52.1723C368.49 46.3966 362.976 40.3982 360.995 32.5273C357.458 33.4782 355.18 35.2688 353.48 37.7115C353.115 38.2347 352.136 38.4769 351.439 38.8479C351.039 38.3285 350.244 37.7817 350.297 37.2956C350.897 31.637 351.017 25.871 354.137 20.6185C358.229 13.7278 365.779 10.9571 374.517 10.5002C384.317 9.98667 394.17 10.1155 404.002 10.0472C413.008 9.98471 422.016 10.0706 431.022 10.0023C432.782 9.98862 433.706 10.3909 434.097 11.8241C435.542 17.1312 437.078 22.4227 438.56 27.724C438.648 28.0344 438.572 28.3761 438.572 29.1884C435.833 29.1884 433.25 29.1884 430.667 29.1884C419.985 29.1884 409.302 29.1337 398.62 29.2314C396.258 29.2528 393.83 29.6238 391.56 30.1725C386.965 31.2855 385.661 34.1851 388.155 37.526C390.404 40.5368 393.958 41.8919 398.142 42.0696C404.093 42.3215 410.056 42.4016 416.011 42.5734C441.139 43.2998 450.46 57.169 449.981 73.9105C449.837 78.9228 448.772 83.9956 442.695 86.3621C438.304 88.0706 433.184 88.9825 428.293 89.3125C419.969 89.8709 411.571 89.7459 403.202 89.8065C393.986 89.8729 384.768 89.7694 375.554 89.8709C373.165 89.8963 372.073 89.2695 371.339 87.3833C369.265 82.0625 366.888 76.8218 364.501 71.2491L364.495 71.2471Z" fill="#F7F8FC"/>
<path d="M308.129 10.5324C309.024 10.466 309.824 10.3586 310.625 10.3567C318.578 10.343 326.532 10.3625 334.485 10.3313C336.049 10.3254 337.222 10.4153 337.791 11.9402C347.417 37.6792 357.104 63.4026 366.775 89.1319C366.802 89.2021 366.761 89.2881 366.724 89.5888C366.008 89.661 365.231 89.8055 364.452 89.8055C356.289 89.8211 348.125 89.7801 339.964 89.8426C338.146 89.8563 337.113 89.497 336.546 87.9623C327.142 62.5259 317.677 37.1052 308.24 11.6786C308.125 11.3701 308.172 11.0206 308.129 10.5305V10.5324Z" fill="#F7F8FC"/>
<path d="M112.547 107.154L117.457 96.2451H127.5L127.267 96.7957H118.115L116.175 101.132H125.102L124.855 101.714H115.915L113.734 106.588L123.35 106.572L123.097 107.17L112.547 107.154Z" fill="#F7F8FC"/>
<path d="M137.382 107.283H136.386L136.512 97.2858L128.729 107.283H127.754L128.199 96.2451H129.063L128.692 106.233L136.411 96.2451H137.46L137.299 106.233L144.813 96.2295H145.699L137.382 107.283Z" fill="#F7F8FC"/>
<path d="M153.293 107.203L155.173 101.636H145.88L143.844 107.187H142.912L146.95 96.2471H147.855L146.092 101.056H155.372L157.034 96.2471H157.939L154.226 107.205H153.293V107.203Z" fill="#F7F8FC"/>
<path d="M168.154 107.203L167.293 103.929H159.223L156.267 107.187H155.313L165.209 96.2314H166.155L169.088 107.203H168.156H168.154ZM165.46 96.9949L159.748 103.356H167.113L165.46 96.9949Z" fill="#F7F8FC"/>
<path d="M189.934 97.0945C190.711 97.6725 190.981 98.4515 190.74 99.4317C190.499 100.408 189.845 101.171 188.776 101.72C187.704 102.271 186.455 102.548 185.032 102.548H179.819L178.552 107.17H177.62L180.644 96.2295H186.675C188.073 96.2295 189.161 96.5165 189.936 97.0945H189.934ZM188.11 101.336C188.986 100.918 189.532 100.283 189.744 99.4317C189.965 98.5433 189.747 97.8833 189.093 97.446C188.44 97.0105 187.597 96.7938 186.568 96.7938H181.394L179.978 101.964H185.224C186.269 101.964 187.232 101.755 188.11 101.336Z" fill="#F7F8FC"/>
<path d="M202.248 103.688C202.018 104.762 201.343 105.66 200.214 106.385C199.082 107.111 197.623 107.476 195.84 107.476C194.057 107.476 192.808 107.111 192.006 106.385C191.208 105.66 190.94 104.76 191.2 103.688L193.026 96.2451H193.931L192.191 103.499C191.944 104.528 192.162 105.331 192.849 105.905C193.539 106.479 194.589 106.768 196.001 106.768C197.413 106.768 198.616 106.481 199.567 105.905C200.515 105.332 201.1 104.53 201.321 103.499L202.863 96.2451H203.831L202.248 103.688Z" fill="#F7F8FC"/>
<path d="M215.043 102.257C215.614 102.736 215.775 103.399 215.528 104.247C215.289 105.12 214.697 105.826 213.747 106.363C212.795 106.902 211.519 107.172 209.923 107.172H204.009L206.264 96.2314H212.17C213.433 96.2314 214.373 96.4501 214.994 96.8895C215.616 97.3288 215.919 97.8677 215.901 98.5043C215.891 99.258 215.627 99.8789 215.111 100.367C214.592 100.857 214.068 101.181 213.537 101.337C213.972 101.474 214.474 101.781 215.043 102.257ZM214.033 100.396C214.594 99.9394 214.922 99.4513 215.015 98.9338C215.115 98.3871 214.947 97.8931 214.518 97.4538C214.089 97.0144 213.339 96.7938 212.269 96.7938H207.054L206.18 101.084H211.457C212.611 101.084 213.469 100.853 214.033 100.396ZM213.297 105.871C214.058 105.395 214.509 104.768 214.646 103.991C214.775 103.271 214.528 102.704 213.906 102.288C213.285 101.874 212.502 101.665 211.554 101.665H206.062L205.06 106.588H210.562C211.62 106.588 212.531 106.35 213.297 105.871Z" fill="#F7F8FC"/>
<path d="M216.833 107.17L218.712 96.2451H219.576L217.822 106.588H226.838L226.753 107.17H216.832H216.833Z" fill="#F7F8FC"/>
<path d="M228.131 107.17L229.679 96.2451H230.544L229.042 107.17H228.131Z" fill="#F7F8FC"/>
<path d="M243.611 99.2745C243.432 98.716 242.962 98.1303 242.201 97.5132C241.442 96.9001 240.321 96.5936 238.839 96.5936C237.246 96.5936 235.897 97.0681 234.786 98.0209C233.669 98.9796 233.014 100.177 232.826 101.616C232.634 103.078 232.973 104.306 233.851 105.298C234.733 106.294 236.007 106.796 237.674 106.796C239.226 106.796 240.449 106.464 241.337 105.804C242.222 105.146 242.797 104.541 243.065 103.988L243.988 104.004C243.747 104.587 243.114 105.312 242.09 106.173C241.059 107.04 239.56 107.473 237.594 107.473C235.629 107.473 234.079 106.911 233.038 105.794C232.002 104.683 231.598 103.287 231.824 101.614C232.045 99.9657 232.806 98.6106 234.104 97.5425C235.394 96.4803 237.004 95.9512 238.936 95.9512C240.869 95.9512 242.154 96.3554 243.046 97.1657C243.939 97.9799 244.454 98.6887 244.588 99.2862L243.615 99.2706L243.611 99.2745Z" fill="#F7F8FC"/>
<path d="M263.957 107.17L260.031 102.437H254.191L253.845 107.17L252.913 107.154L253.739 96.2295H260.057C261.498 96.2295 262.62 96.5224 263.43 97.1082C264.242 97.6978 264.629 98.4183 264.59 99.2755C264.553 100.084 264.155 100.761 263.391 101.304C262.626 101.849 261.828 102.195 260.997 102.343L265.037 107.17H263.955H263.957ZM262.281 101.242C263.114 100.824 263.553 100.168 263.595 99.2755C263.638 98.3832 263.267 97.7096 262.482 97.3308C261.698 96.952 260.839 96.7626 259.905 96.7626H254.609L254.236 101.869H259.606C260.554 101.869 261.445 101.66 262.282 101.24L262.281 101.242Z" fill="#F7F8FC"/>
<path d="M266.163 107.154L266.602 96.2451H276.645L276.637 96.7957H267.485L267.322 101.132H276.249L276.241 101.714H267.301L267.116 106.588L276.724 106.572L276.717 107.17L266.161 107.154H266.163Z" fill="#F7F8FC"/>
<path d="M278.604 107.17L278.682 96.2451H279.546L279.498 106.588H288.514L288.525 107.17H278.604Z" fill="#F7F8FC"/>
<path d="M301.711 107.203L299.684 103.929H291.613L289.817 107.187H288.863L294.855 96.2314H295.801L302.642 107.203H301.709H301.711ZM295.379 96.9949L291.932 103.356H299.297L295.379 96.9949Z" fill="#F7F8FC"/>
<path d="M305.782 96.7957L306.487 107.267H305.534L304.834 96.7957H299.722L299.695 96.2451H310.83L310.875 96.7957H305.784H305.782Z" fill="#F7F8FC"/>
<path d="M313.009 107.17L312.083 96.2451H312.947L313.92 107.17H313.009Z" fill="#F7F8FC"/>
<path d="M326.166 97.5464C327.479 98.6145 328.243 99.9696 328.452 101.618C328.662 103.266 328.245 104.687 327.18 105.798C326.11 106.915 324.576 107.477 322.581 107.477C320.586 107.477 318.931 106.915 317.622 105.798C316.321 104.687 315.595 103.291 315.439 101.618C315.286 99.9696 315.748 98.6145 316.818 97.5464C317.881 96.4842 319.378 95.9551 321.311 95.9551C323.243 95.9551 324.859 96.4842 326.164 97.5464H326.166ZM326.37 105.3C327.273 104.308 327.633 103.08 327.45 101.618C327.27 100.177 326.615 98.9816 325.49 98.0229C324.372 97.07 323.004 96.5955 321.383 96.5955C319.761 96.5955 318.502 97.07 317.601 98.0229C316.694 98.9816 316.308 100.179 316.443 101.618C316.583 103.08 317.209 104.308 318.324 105.3C319.444 106.296 320.841 106.798 322.507 106.798C324.174 106.798 325.461 106.298 326.37 105.3Z" fill="#F7F8FC"/>
<path d="M341.477 107.17L330.806 97.1179L332.172 107.17L331.216 107.154L329.759 96.2295H330.829L341.496 106.233L339.886 96.2451H340.791L342.576 107.154L341.477 107.17Z" fill="#F7F8FC"/>
<path d="M354.269 102.752C354.879 103.258 355.199 103.836 355.23 104.484C355.271 105.251 354.884 105.95 354.071 106.579C353.253 107.21 351.981 107.526 350.256 107.526C348.331 107.526 346.807 107.139 345.686 106.37C344.569 105.603 343.965 104.693 343.872 103.64H344.732C344.892 104.734 345.498 105.544 346.552 106.064C347.609 106.585 348.817 106.847 350.172 106.847C351.231 106.847 352.196 106.649 353.066 106.257C353.935 105.864 354.36 105.306 354.344 104.58C354.335 104.027 354.069 103.547 353.548 103.141C353.03 102.734 352.4 102.426 351.662 102.215C350.969 102.016 350.19 101.856 349.326 101.735C348.461 101.614 347.683 101.481 346.987 101.334C346.02 101.135 345.214 100.815 344.567 100.372C343.922 99.9305 343.579 99.3682 343.532 98.6867C343.487 98.017 343.806 97.3804 344.484 96.7712C345.16 96.1659 346.34 95.8633 348.026 95.8633C349.972 95.8633 351.396 96.2811 352.299 97.1168C353.206 97.9565 353.682 98.6516 353.721 99.1983H352.829C352.715 98.4661 352.192 97.8276 351.27 97.2848C350.349 96.7439 349.304 96.4725 348.139 96.4725C346.974 96.4725 346.103 96.6697 345.41 97.0622C344.715 97.4566 344.392 97.9975 344.443 98.6867C344.501 99.3487 344.837 99.8329 345.453 100.139C346.069 100.446 346.68 100.673 347.29 100.819C347.826 100.944 348.527 101.057 349.396 101.155C350.262 101.254 351.128 101.418 351.992 101.649C352.899 101.879 353.659 102.246 354.267 102.752H354.269Z" fill="#F7F8FC"/>
<path d="M364.965 107.17L362.525 96.2451H363.39L365.876 107.17H364.965Z" fill="#F7F8FC"/>
<path d="M378.764 107.17L367.093 97.1179L369.459 107.17L368.501 107.154L365.959 96.2295H367.029L378.69 106.233L376.088 96.2451H376.993L379.864 107.154L378.766 107.17H378.764Z" fill="#F7F8FC"/>
<path d="M398.449 102.752C399.119 103.258 399.509 103.836 399.618 104.484C399.75 105.251 399.447 105.95 398.707 106.579C397.965 107.21 396.73 107.526 395.005 107.526C393.08 107.526 391.511 107.139 390.297 106.37C389.089 105.603 388.376 104.693 388.157 103.64H389.017C389.307 104.734 390.01 105.544 391.126 106.064C392.245 106.585 393.484 106.847 394.84 106.847C395.899 106.847 396.841 106.649 397.664 106.257C398.486 105.864 398.845 105.306 398.742 104.58C398.666 104.027 398.342 103.547 397.775 103.141C397.208 102.734 396.541 102.426 395.78 102.215C395.063 102.016 394.265 101.856 393.385 101.735C392.505 101.614 391.711 101.481 391 101.334C390.01 101.135 389.165 100.815 388.466 100.372C387.768 99.9305 387.357 99.3682 387.228 98.6867C387.104 98.017 387.347 97.3804 387.953 96.7712C388.557 96.1659 389.701 95.8633 391.387 95.8633C393.333 95.8633 394.807 96.2811 395.809 97.1168C396.817 97.9565 397.375 98.6516 397.48 99.1983H396.588C396.386 98.4661 395.788 97.8276 394.799 97.2848C393.813 96.7439 392.739 96.4725 391.571 96.4725C390.404 96.4725 389.559 96.6697 388.914 97.0622C388.266 97.4566 388.007 97.9975 388.139 98.6867C388.277 99.3487 388.671 99.8329 389.322 100.139C389.975 100.446 390.614 100.673 391.241 100.819C391.793 100.944 392.507 101.057 393.385 101.155C394.263 101.254 395.149 101.418 396.042 101.649C396.978 101.879 397.779 102.246 398.449 102.752Z" fill="#F7F8FC"/>
<path d="M403.13 96.7957L406.631 107.267H405.678L402.182 96.7957H397.07L396.895 96.2451H408.03L408.222 96.7957H403.132H403.13Z" fill="#F7F8FC"/>
<path d="M422.843 103.688C423.253 104.762 423.11 105.66 422.412 106.385C421.711 107.111 420.47 107.476 418.687 107.476C416.904 107.476 415.438 107.111 414.204 106.385C412.975 105.66 412.175 104.76 411.796 103.688L409.199 96.2451H410.104L412.672 103.499C413.037 104.528 413.732 105.331 414.76 105.905C415.791 106.479 417.013 106.768 418.425 106.768C419.837 106.768 420.868 106.481 421.478 105.905C422.086 105.332 422.193 104.53 421.804 103.499L419.037 96.2451H420.004L422.842 103.688H422.843Z" fill="#F7F8FC"/>
<path d="M432.63 97.7536C434.303 98.7885 435.464 100.073 436.111 101.618C436.763 103.174 436.684 104.49 435.862 105.556C435.037 106.63 433.568 107.169 431.463 107.169H426.672L422.428 96.2287H427.079C429.119 96.2189 430.968 96.7246 432.63 97.7536ZM434.936 105.052C435.553 104.037 435.596 102.891 435.066 101.618C434.497 100.251 433.508 99.1048 432.102 98.1773C430.704 97.2538 429.051 96.7949 427.142 96.7949H423.554L427.379 106.587H431.061C433.023 106.587 434.314 106.074 434.936 105.052Z" fill="#F7F8FC"/>
<path d="M442.479 102.818L444.395 107.267H443.441L441.551 102.849L433.24 96.2451H434.126L441.745 102.234L444.148 96.2451H445.053L442.479 102.818Z" fill="#F7F8FC"/>
</svg>
