<svg width="152" height="36" viewBox="0 0 152 36" fill="none" xmlns="http://www.w3.org/2000/svg">
<g clip-path="url(#clip0_2046_785)">
<path d="M111.566 26.6211C108.547 26.6211 105.701 26.6388 102.856 26.5924C102.588 26.5878 102.191 26.2178 102.088 25.9569C101.293 23.9525 100.522 21.9409 99.8202 19.9142C99.5853 19.2356 99.1833 19.014 98.3349 19.0473C96.9651 19.1016 95.5888 19.0918 94.2177 19.0473C93.4939 19.0238 93.1468 19.2337 92.9242 19.7848C92.1065 21.8134 91.2092 23.8211 90.4071 25.853C90.1722 26.4486 89.812 26.6506 89.0543 26.6395C86.6965 26.6055 84.3373 26.629 81.9795 26.6244C81.7093 26.6244 81.4391 26.5852 81.0306 26.5532C81.6258 25.0783 82.1909 23.6779 82.7554 22.2776C83.1809 21.223 83.5823 20.1613 84.0417 19.116C84.2499 18.642 84.1755 18.3694 83.6169 18.0654C79.6595 15.908 77.2971 12.8752 76.2712 9.12912C76.1968 8.85716 76.0917 8.59108 75.9136 8.06219C75.6688 8.8212 75.5116 9.33179 75.3399 9.83911C74.2207 13.1386 72.0463 15.8635 68.5777 17.8568C67.1707 18.6655 65.6005 19.0885 63.8346 19.0709C60.4209 19.0362 57.0058 19.0787 53.5914 19.048C52.8201 19.0408 52.4774 19.2539 52.2647 19.8495C51.5344 21.8984 50.7591 23.9381 49.9388 25.9648C49.8298 26.2341 49.3639 26.5917 49.0552 26.597C46.2758 26.644 43.4944 26.6225 40.7137 26.6159C40.5799 26.6159 40.4468 26.5662 40.1753 26.512C40.2725 26.172 40.3411 25.8504 40.4572 25.5398C43.5303 17.3162 46.6138 9.09578 49.6713 0.868855C49.8703 0.333424 50.1783 0.162793 50.859 0.166062C56.2449 0.188943 61.6308 0.143834 67.016 0.19875C69.5586 0.224246 72.0293 0.657036 73.8683 2.2241C74.7167 2.94716 75.2969 3.87681 76.0089 4.72474C76.157 4.46062 76.3195 4.12524 76.527 3.80816C77.8962 1.71809 80.1894 0.726335 82.9525 0.351076C83.917 0.220324 84.911 0.187636 85.8918 0.184367C90.8548 0.168677 95.8185 0.186982 100.782 0.168023C101.486 0.165408 101.832 0.319695 102.05 0.906119C105.116 9.19188 108.218 17.4685 111.307 25.7484C111.397 25.989 111.454 26.2374 111.567 26.6205L111.566 26.6211ZM54.552 13.7296C56.7317 13.7296 58.6947 13.8035 60.6428 13.6976C61.5799 13.6466 62.6593 13.4341 63.3791 12.985C65.4837 11.6716 66.8261 9.92933 66.9273 7.69935C66.9854 6.41144 65.9275 4.70512 63.6388 4.83718C62.102 4.92609 60.5481 4.89341 59.006 4.83914C58.1531 4.80907 57.7615 5.03919 57.5299 5.70995C56.9242 7.45876 56.2201 9.18469 55.5662 10.9224C55.2327 11.8082 54.9234 12.7 54.552 13.7303V13.7296ZM97.5179 13.7787C96.415 10.8211 95.4198 8.09683 94.3541 5.39157C94.2594 5.15164 93.7099 4.8921 93.3588 4.88033C91.7443 4.82476 90.1252 4.84634 88.5074 4.85483C86.4413 4.86529 85.1955 5.88451 85.1361 7.55879C85.0532 9.92017 87.7178 13.8741 91.8892 13.7859C93.6969 13.7473 95.5072 13.7793 97.5172 13.7793L97.5179 13.7787Z" fill="#EE3D59"/>
<path d="M21.0716 13.7447H37.2978C36.935 14.7279 36.6256 15.5817 36.3039 16.4329C35.8928 17.5201 35.3975 18.591 35.0816 19.6959C34.8845 20.3849 34.4662 20.5032 33.6942 20.4993C28.9439 20.4751 24.193 20.5013 19.4427 20.4732C18.6374 20.4686 18.2491 20.6327 18.0892 21.3126C17.8471 22.3436 17.4092 23.3438 17.1469 24.3722C16.816 25.6712 17.7453 26.6408 19.3859 26.8356C25.6666 27.5822 31.923 27.4312 38.1599 26.5152C38.2963 26.495 38.4379 26.4989 38.7459 26.4825C38.5958 26.9761 38.4758 27.4272 38.3204 27.8698C37.5654 30.0305 36.7784 32.184 36.054 34.3519C35.8621 34.9259 35.5456 35.1848 34.7879 35.2351C31.9557 35.4247 29.1325 35.7228 26.2983 35.8791C21.3796 36.1497 16.4727 35.9307 11.5685 35.5541C7.83233 35.2671 5.52539 33.5765 4.26065 30.8588C2.95089 28.0457 3.15515 25.1613 3.91217 22.2762C4.9511 18.3164 6.41554 14.4631 8.32113 10.7197C8.44773 10.4706 8.55345 10.2137 8.76163 9.75607C7.03877 10.1686 5.54823 10.5582 4.03486 10.8786C2.56912 11.1885 1.86105 12.6522 0.236729 12.6934C0.157765 12.6176 0.0794528 12.5417 0.000488281 12.4659C0.472317 11.7788 0.907601 11.0727 1.42315 10.4079C3.93762 7.1626 6.91021 4.27232 11.1338 2.3823C14.4849 0.883223 18.0873 0.0470625 21.9095 0.0254884C30.2491 -0.0215824 38.5893 0.0104519 46.9295 0.0130669C47.203 0.0130669 47.4758 0.0418324 47.883 0.064714C47.1508 2.05149 46.4518 3.97682 45.7281 5.89626C45.4116 6.73569 45.3326 7.87912 44.618 8.30668C43.9034 8.73424 42.531 8.45901 41.4471 8.46031C36.5558 8.46816 31.6633 8.50608 26.7734 8.4407C25.288 8.42109 24.1976 8.83361 23.5071 9.80902C22.6444 11.0283 21.9422 12.3221 21.0716 13.7447Z" fill="#F7F8FC"/>
<path d="M122.472 20.507C123.471 20.507 124.339 20.5089 125.207 20.507C129.781 20.4952 134.355 20.4919 138.929 20.4592C139.624 20.454 140.37 20.4141 140.998 20.2043C141.591 20.0055 142.457 19.5884 142.494 19.2204C142.554 18.6274 142.224 17.8344 141.702 17.4251C141.166 17.0048 140.206 16.7687 139.423 16.7544C136.153 16.6942 132.882 16.7256 129.701 15.9666C128.231 15.6162 126.922 15.1036 125.875 14.1204C123.814 12.1865 121.961 10.1782 121.296 7.54288C120.107 7.86126 119.342 8.46076 118.771 9.27861C118.648 9.45382 118.319 9.53489 118.085 9.6591C117.95 9.4852 117.683 9.30215 117.701 9.13936C117.903 7.24476 117.943 5.3142 118.991 3.55559C120.366 1.24846 122.903 0.320778 125.839 0.167798C129.132 -0.00414164 132.443 0.0390066 135.746 0.016125C138.772 -0.00479539 141.799 0.0239701 144.825 0.00108846C145.416 -0.00348787 145.727 0.131187 145.858 0.611048C146.344 2.38797 146.86 4.15966 147.358 5.93462C147.387 6.03857 147.362 6.15298 147.362 6.42494C146.441 6.42494 145.574 6.42494 144.706 6.42494C141.116 6.42494 137.527 6.40664 133.938 6.43933C133.144 6.44652 132.328 6.57073 131.565 6.75444C130.021 7.12708 129.584 8.09792 130.421 9.2165C131.177 10.2246 132.371 10.6783 133.777 10.7378C135.777 10.8221 137.78 10.8489 139.781 10.9065C148.224 11.1497 151.356 15.7933 151.195 21.3987C151.147 23.0769 150.789 24.7754 148.747 25.5677C147.272 26.1398 145.551 26.4451 143.908 26.5556C141.111 26.7425 138.289 26.7007 135.477 26.721C132.381 26.7432 129.283 26.7085 126.187 26.7425C125.385 26.751 125.018 26.5412 124.771 25.9096C124.074 24.1281 123.276 22.3734 122.473 20.5076L122.472 20.507Z" fill="#F7F8FC"/>
<path d="M103.533 0.178746C103.834 0.156518 104.102 0.120561 104.371 0.119907C107.044 0.115331 109.716 0.121868 112.388 0.111408C112.914 0.109447 113.308 0.13952 113.499 0.650107C116.733 9.26798 119.989 17.8806 123.238 26.4952C123.247 26.5188 123.233 26.5475 123.221 26.6482C122.98 26.6724 122.719 26.7208 122.457 26.7208C119.715 26.726 116.972 26.7123 114.229 26.7332C113.619 26.7378 113.271 26.6175 113.081 26.1036C109.921 17.5871 106.741 9.07578 103.57 0.562503C103.531 0.459209 103.547 0.342186 103.533 0.178092V0.178746Z" fill="#F7F8FC"/>
<path d="M37.8169 32.5285L39.4667 28.876H42.8413L42.7629 29.0603H39.6879L39.0359 30.5123H42.0353L41.9524 30.7072H38.9485L38.2156 32.3389L41.4467 32.3337L41.3618 32.5338L37.8169 32.5285Z" fill="#F7F8FC"/>
<path d="M46.1617 32.5711H45.8269L45.8693 29.2238L43.2544 32.5711H42.9268L43.0762 28.8753H43.3666L43.242 32.2193L45.8354 28.8753H46.1878L46.1336 32.2193L48.6585 28.8701H48.9561L46.1617 32.5711Z" fill="#F7F8FC"/>
<path d="M51.5077 32.5442L52.1394 30.6804H49.0167L48.3328 32.539H48.0195L49.3763 28.876H49.6804L49.0878 30.4862H52.206L52.7646 28.876H53.0687L51.8209 32.5449H51.5077V32.5442Z" fill="#F7F8FC"/>
<path d="M56.5009 32.5446L56.2118 31.4482H53.5002L52.507 32.5393H52.1865L55.5115 28.8711H55.8293L56.8148 32.5446H56.5015H56.5009ZM55.5957 29.1267L53.6764 31.2567H56.1511L55.5957 29.1267Z" fill="#F7F8FC"/>
<path d="M63.8191 29.1597C64.0802 29.3532 64.1709 29.6141 64.0899 29.9423C64.009 30.2692 63.7891 30.5248 63.4302 30.7085C63.0699 30.8929 62.6503 30.9857 62.172 30.9857H60.4204L59.9949 32.5331H59.6816L60.6977 28.8701H62.7241C63.1939 28.8701 63.5594 28.9662 63.8198 29.1597H63.8191ZM63.2063 30.5797C63.5007 30.4398 63.684 30.2273 63.7552 29.9423C63.8296 29.6448 63.7565 29.4239 63.5365 29.2774C63.3173 29.1316 63.034 29.0591 62.6882 29.0591H60.9496L60.4739 30.7902H62.2366C62.5877 30.7902 62.9114 30.7203 63.2063 30.5797Z" fill="#F7F8FC"/>
<path d="M67.9567 31.3681C67.8797 31.7277 67.6526 32.0284 67.2734 32.271C66.8929 32.5142 66.4028 32.6364 65.8038 32.6364C65.2047 32.6364 64.7851 32.5142 64.5155 32.271C64.2473 32.0284 64.1573 31.727 64.2447 31.3681L64.8581 28.876H65.1623L64.5775 31.3047C64.4946 31.6492 64.5677 31.9179 64.7988 32.1101C65.0304 32.3023 65.3835 32.3991 65.8579 32.3991C66.3324 32.3991 66.7363 32.303 67.0561 32.1101C67.3746 31.9186 67.571 31.6499 67.6454 31.3047L68.1636 28.876H68.4886L67.9567 31.3681Z" fill="#F7F8FC"/>
<path d="M72.2558 30.8886C72.4476 31.0488 72.5018 31.2711 72.4189 31.5548C72.3386 31.847 72.1396 32.0837 71.8205 32.2635C71.5007 32.4439 71.0719 32.5341 70.5355 32.5341H68.5483L69.306 28.8711H71.2906C71.7148 28.8711 72.0306 28.9443 72.2394 29.0914C72.4483 29.2385 72.5501 29.4189 72.5442 29.6321C72.5409 29.8844 72.4522 30.0923 72.2786 30.2558C72.1044 30.4199 71.9281 30.5284 71.75 30.5807C71.8962 30.6264 72.0645 30.7291 72.2558 30.8886ZM71.9164 30.2656C72.105 30.1126 72.2153 29.9491 72.2466 29.7759C72.2799 29.5928 72.2238 29.4274 72.0796 29.2803C71.9353 29.1333 71.6834 29.0594 71.3238 29.0594H69.5716L69.2779 30.4957H71.0511C71.4387 30.4957 71.7271 30.4185 71.9164 30.2656ZM71.6691 32.0987C71.9249 31.9392 72.0763 31.7293 72.1226 31.4691C72.1657 31.2279 72.0828 31.0383 71.874 30.8991C71.6652 30.7605 71.4022 30.6905 71.0837 30.6905H69.2381L68.9014 32.3386H70.7502C71.1059 32.3386 71.4119 32.2589 71.6691 32.0987Z" fill="#F7F8FC"/>
<path d="M72.8576 32.5338L73.4886 28.876H73.7791L73.1898 32.3389H76.2191L76.1904 32.5338H72.8569H72.8576Z" fill="#F7F8FC"/>
<path d="M76.6538 32.5338L77.1739 28.876H77.4643L76.9599 32.5338H76.6538Z" fill="#F7F8FC"/>
<path d="M81.855 29.89C81.7949 29.7031 81.637 29.5069 81.3812 29.3004C81.126 29.0951 80.7495 28.9924 80.2515 28.9924C79.7164 28.9924 79.2628 29.1513 78.8896 29.4703C78.5143 29.7913 78.2944 30.1921 78.2311 30.6739C78.1665 31.1636 78.2807 31.5748 78.5757 31.9069C78.8719 32.2403 79.3 32.4083 79.86 32.4083C80.3814 32.4083 80.7925 32.2972 81.0908 32.0762C81.3884 31.8559 81.5815 31.6532 81.6716 31.4682L81.9816 31.4735C81.9007 31.6689 81.6879 31.9115 81.344 32.1998C80.9975 32.4901 80.4937 32.6352 79.8332 32.6352C79.1728 32.6352 78.652 32.4469 78.3022 32.073C77.9544 31.701 77.8186 31.2335 77.8943 30.6733C77.9687 30.1215 78.2246 29.6678 78.6605 29.3102C79.0938 28.9545 79.6348 28.7773 80.2842 28.7773C80.9335 28.7773 81.3655 28.9127 81.6651 29.184C81.9653 29.4566 82.1382 29.6939 82.1832 29.894L81.8563 29.8887L81.855 29.89Z" fill="#F7F8FC"/>
<path d="M88.6911 32.5331L87.3722 30.9484H85.4099L85.2937 32.5331L84.9805 32.5279L85.2578 28.8701H87.3807C87.865 28.8701 88.2422 28.9682 88.5143 29.1643C88.7871 29.3617 88.9169 29.603 88.9039 29.89C88.8915 30.1606 88.7577 30.3875 88.5012 30.5692C88.2441 30.7516 87.9759 30.8674 87.6966 30.917L89.054 32.5331H88.6905H88.6911ZM88.128 30.5483C88.4079 30.4084 88.5554 30.1888 88.5698 29.89C88.5841 29.5912 88.4595 29.3657 88.1958 29.2388C87.9322 29.112 87.6437 29.0486 87.3298 29.0486H85.5502L85.4249 30.7582H87.2293C87.5478 30.7582 87.8473 30.6882 88.1286 30.5477L88.128 30.5483Z" fill="#F7F8FC"/>
<path d="M89.4323 32.5285L89.5798 28.876H92.9544L92.9518 29.0603H89.8767L89.8219 30.5123H92.8212L92.8186 30.7072H89.8147L89.7527 32.3389L92.9811 32.3337L92.9785 32.5338L89.4316 32.5285H89.4323Z" fill="#F7F8FC"/>
<path d="M93.6128 32.5338L93.6389 28.876H93.9293L93.913 32.3389H96.9424L96.9463 32.5338H93.6128Z" fill="#F7F8FC"/>
<path d="M101.377 32.5446L100.696 31.4482H97.9841L97.3805 32.5393H97.0601L99.0733 28.8711H99.3911L101.69 32.5446H101.376H101.377ZM99.2495 29.1267L98.0912 31.2567H100.566L99.2495 29.1267Z" fill="#F7F8FC"/>
<path d="M102.744 29.0603L102.981 32.5665H102.661L102.426 29.0603H100.708L100.699 28.876H104.441L104.456 29.0603H102.745H102.744Z" fill="#F7F8FC"/>
<path d="M105.173 32.5338L104.862 28.876H105.152L105.479 32.5338H105.173Z" fill="#F7F8FC"/>
<path d="M109.593 29.3111C110.035 29.6687 110.291 30.1225 110.362 30.6742C110.432 31.226 110.292 31.7019 109.934 32.0739C109.575 32.4479 109.059 32.6362 108.389 32.6362C107.719 32.6362 107.163 32.4479 106.723 32.0739C106.285 31.7019 106.041 31.2345 105.989 30.6742C105.938 30.1225 106.093 29.6687 106.452 29.3111C106.809 28.9555 107.313 28.7783 107.962 28.7783C108.611 28.7783 109.154 28.9555 109.593 29.3111H109.593ZM109.662 31.9072C109.965 31.5751 110.086 31.1639 110.025 30.6742C109.964 30.1918 109.744 29.7916 109.366 29.4707C108.99 29.1516 108.531 28.9928 107.986 28.9928C107.441 28.9928 107.018 29.1516 106.715 29.4707C106.411 29.7916 106.281 30.1924 106.327 30.6742C106.374 31.1639 106.584 31.5751 106.958 31.9072C107.335 32.2406 107.804 32.4087 108.364 32.4087C108.924 32.4087 109.357 32.2413 109.662 31.9072Z" fill="#F7F8FC"/>
<path d="M114.738 32.5331L111.153 29.1676L111.611 32.5331L111.29 32.5279L110.801 28.8701H111.16L114.744 32.2193L114.203 28.8753H114.508L115.107 32.5279L114.738 32.5331Z" fill="#F7F8FC"/>
<path d="M119.036 31.0545C119.241 31.2238 119.349 31.4174 119.359 31.6344C119.373 31.8913 119.243 32.1254 118.97 32.3359C118.695 32.5471 118.267 32.653 117.688 32.653C117.041 32.653 116.529 32.5235 116.152 32.2659C115.777 32.009 115.574 31.7044 115.543 31.352H115.832C115.885 31.7181 116.089 31.9894 116.443 32.1633C116.798 32.3378 117.204 32.4255 117.66 32.4255C118.016 32.4255 118.34 32.3594 118.632 32.228C118.924 32.0966 119.067 31.9096 119.062 31.6664C119.058 31.4814 118.969 31.3206 118.794 31.1846C118.62 31.0486 118.408 30.9453 118.16 30.8747C117.927 30.808 117.666 30.7544 117.375 30.7139C117.085 30.6734 116.823 30.6289 116.59 30.5799C116.265 30.5132 115.994 30.406 115.776 30.2576C115.56 30.1098 115.444 29.9215 115.429 29.6934C115.414 29.4691 115.521 29.256 115.748 29.052C115.976 28.8494 116.372 28.748 116.939 28.748C117.593 28.748 118.071 28.888 118.374 29.1678C118.679 29.4489 118.839 29.6816 118.852 29.8647H118.553C118.514 29.6195 118.339 29.4057 118.029 29.224C117.719 29.0429 117.368 28.952 116.977 28.952C116.585 28.952 116.293 29.0181 116.06 29.1495C115.826 29.2815 115.718 29.4626 115.735 29.6934C115.754 29.915 115.867 30.0771 116.074 30.1798C116.281 30.2824 116.486 30.3583 116.691 30.4073C116.872 30.4491 117.107 30.4871 117.399 30.5197C117.69 30.5531 117.981 30.608 118.271 30.6851C118.576 30.7623 118.831 30.8852 119.036 31.0545H119.036Z" fill="#F7F8FC"/>
<path d="M122.63 32.5338L121.811 28.876H122.101L122.936 32.5338H122.63Z" fill="#F7F8FC"/>
<path d="M127.266 32.5331L123.345 29.1676L124.14 32.5331L123.818 32.5279L122.964 28.8701H123.323L127.242 32.2193L126.367 28.8753H126.671L127.636 32.5279L127.267 32.5331H127.266Z" fill="#F7F8FC"/>
<path d="M133.881 31.0545C134.106 31.2238 134.237 31.4174 134.274 31.6344C134.318 31.8913 134.216 32.1254 133.968 32.3359C133.718 32.5471 133.303 32.653 132.724 32.653C132.077 32.653 131.55 32.5235 131.142 32.2659C130.736 32.009 130.496 31.7044 130.423 31.352H130.712C130.809 31.7181 131.045 31.9894 131.42 32.1633C131.796 32.3378 132.213 32.4255 132.668 32.4255C133.024 32.4255 133.34 32.3594 133.617 32.228C133.893 32.0966 134.014 31.9096 133.979 31.6664C133.954 31.4814 133.845 31.3206 133.654 31.1846C133.464 31.0486 133.24 30.9453 132.984 30.8747C132.743 30.808 132.475 30.7544 132.179 30.7139C131.884 30.6734 131.617 30.6289 131.378 30.5799C131.045 30.5132 130.761 30.406 130.526 30.2576C130.292 30.1098 130.154 29.9215 130.111 29.6934C130.069 29.4691 130.151 29.256 130.354 29.052C130.557 28.8494 130.941 28.748 131.508 28.748C132.162 28.748 132.657 28.888 132.994 29.1678C133.333 29.4489 133.52 29.6816 133.555 29.8647H133.256C133.188 29.6195 132.987 29.4057 132.655 29.224C132.323 29.0429 131.962 28.952 131.57 28.952C131.178 28.952 130.894 29.0181 130.677 29.1495C130.459 29.2815 130.372 29.4626 130.417 29.6934C130.463 29.915 130.596 30.0771 130.814 30.1798C131.033 30.2824 131.248 30.3583 131.459 30.4073C131.644 30.4491 131.884 30.4871 132.179 30.5197C132.474 30.5531 132.772 30.608 133.072 30.6851C133.387 30.7623 133.656 30.8852 133.881 31.0545Z" fill="#F7F8FC"/>
<path d="M135.454 29.0603L136.63 32.5665H136.31L135.135 29.0603H133.418L133.359 28.876H137.1L137.165 29.0603H135.454H135.454Z" fill="#F7F8FC"/>
<path d="M142.078 31.3681C142.215 31.7277 142.167 32.0284 141.933 32.271C141.697 32.5142 141.28 32.6364 140.681 32.6364C140.082 32.6364 139.589 32.5142 139.175 32.271C138.762 32.0284 138.493 31.727 138.366 31.3681L137.493 28.876H137.797L138.66 31.3047C138.783 31.6492 139.016 31.9179 139.362 32.1101C139.708 32.3023 140.119 32.3991 140.593 32.3991C141.067 32.3991 141.414 32.303 141.619 32.1101C141.823 31.9186 141.859 31.6499 141.729 31.3047L140.799 28.876H141.124L142.077 31.3681H142.078Z" fill="#F7F8FC"/>
<path d="M145.366 29.3808C145.928 29.7272 146.318 30.1574 146.536 30.6745C146.755 31.1956 146.728 31.6362 146.452 31.9932C146.175 32.3527 145.681 32.5332 144.974 32.5332H143.364L141.938 28.8702H143.501C144.186 28.8669 144.807 29.0362 145.366 29.3808ZM146.141 31.8245C146.348 31.4846 146.363 31.1008 146.184 30.6745C145.993 30.2169 145.661 29.8332 145.189 29.5226C144.719 29.2134 144.163 29.0598 143.522 29.0598H142.316L143.601 32.3384H144.839C145.498 32.3384 145.932 32.1664 146.141 31.8245Z" fill="#F7F8FC"/>
<path d="M148.675 31.0765L149.319 32.5665H148.998L148.363 31.087L145.571 28.876H145.868L148.429 30.8811L149.236 28.876H149.54L148.675 31.0765Z" fill="#F7F8FC"/>
</g>
<defs>
<clipPath id="clip0_2046_785">
<rect width="151.2" height="36" fill="white"/>
</clipPath>
</defs>
</svg>
