<svg width="49" height="48" viewBox="0 0 49 48" fill="none" xmlns="http://www.w3.org/2000/svg">
<path fill-rule="evenodd" clip-rule="evenodd" d="M32.667 8H16.667C12.2487 8 8.66699 11.5817 8.66699 16V32C8.66699 36.4183 12.2487 40 16.667 40H32.667C37.0853 40 40.667 36.4183 40.667 32V16C40.667 11.5817 37.0853 8 32.667 8ZM16.667 4C10.0396 4 4.66699 9.37258 4.66699 16V32C4.66699 38.6274 10.0396 44 16.667 44H32.667C39.2944 44 44.667 38.6274 44.667 32V16C44.667 9.37258 39.2944 4 32.667 4H16.667Z" fill="#CFD1DA"/>
<path fill-rule="evenodd" clip-rule="evenodd" d="M24.667 30.8C28.4225 30.8 31.467 27.7555 31.467 24C31.467 20.2445 28.4225 17.2 24.667 17.2C20.9115 17.2 17.867 20.2445 17.867 24C17.867 27.7555 20.9115 30.8 24.667 30.8ZM24.667 34C30.1898 34 34.667 29.5228 34.667 24C34.667 18.4772 30.1898 14 24.667 14C19.1441 14 14.667 18.4772 14.667 24C14.667 29.5228 19.1441 34 24.667 34Z" fill="#CFD1DA"/>
<path d="M37.467 14.4C37.467 15.7255 36.3925 16.8 35.067 16.8C33.7415 16.8 32.667 15.7255 32.667 14.4C32.667 13.0745 33.7415 12 35.067 12C36.3925 12 37.467 13.0745 37.467 14.4Z" fill="#CFD1DA"/>
</svg>
