<svg width="49" height="48" viewBox="0 0 49 48" fill="none" xmlns="http://www.w3.org/2000/svg">
<path d="M8.33301 40C7.23301 40 6.29134 39.6083 5.50801 38.825C4.72467 38.0417 4.33301 37.1 4.33301 36V12C4.33301 10.9 4.72467 9.95833 5.50801 9.175C6.29134 8.39167 7.23301 8 8.33301 8H40.333C41.433 8 42.3747 8.39167 43.158 9.175C43.9413 9.95833 44.333 10.9 44.333 12V36C44.333 37.1 43.9413 38.0417 43.158 38.825C42.3747 39.6083 41.433 40 40.333 40H8.33301ZM24.333 26L8.33301 16V36H40.333V16L24.333 26ZM24.333 22L40.333 12H8.33301L24.333 22ZM8.33301 16V12V36V16Z" fill="#CFD1DA"/>
</svg>
