<svg width="48" height="48" viewBox="0 0 48 48" fill="none" xmlns="http://www.w3.org/2000/svg">
<g id="icon/phone">
<path id="Vector" d="M14 46C12.9 46 11.9583 45.6083 11.175 44.825C10.3917 44.0417 10 43.1 10 42V6C10 4.9 10.3917 3.95833 11.175 3.175C11.9583 2.39167 12.9 2 14 2H34C35.1 2 36.0417 2.39167 36.825 3.175C37.6083 3.95833 38 4.9 38 6V42C38 43.1 37.6083 44.0417 36.825 44.825C36.0417 45.6083 35.1 46 34 46H14ZM14 36V42H34V36H14ZM24 41C24.5667 41 25.0417 40.8083 25.425 40.425C25.8083 40.0417 26 39.5667 26 39C26 38.4333 25.8083 37.9583 25.425 37.575C25.0417 37.1917 24.5667 37 24 37C23.4333 37 22.9583 37.1917 22.575 37.575C22.1917 37.9583 22 38.4333 22 39C22 39.5667 22.1917 40.0417 22.575 40.425C22.9583 40.8083 23.4333 41 24 41ZM14 32H34V12H14V32ZM14 8H34V6H14V8Z" fill="#CFD1DA"/>
</g>
</svg>
