<svg width="48" height="48" viewBox="0 0 48 48" fill="none" xmlns="http://www.w3.org/2000/svg">
<path d="M12.7292 21.6911C11.9687 21.6911 11.3512 22.3086 11.3512 23.0691C11.3512 23.8296 11.9687 24.4471 12.7292 24.4471C13.4897 24.4471 14.1072 23.8296 14.1072 23.0691C14.1072 22.3086 13.4897 21.6911 12.7292 21.6911Z" fill="#CFD1DA"/>
<path d="M26.334 24.5118C27.1531 24.5118 27.8172 23.8478 27.8172 23.0287C27.8172 22.2095 27.1531 21.5455 26.334 21.5455C25.5148 21.5455 24.8508 22.2095 24.8508 23.0287C24.8508 23.8478 25.5148 24.5118 26.334 24.5118Z" fill="#CFD1DA"/>
<path d="M38.6498 8H9.35023C6.39466 8 4 10.3947 4 13.3502V30.7385C4 33.6941 6.39466 36.0887 9.35023 36.0887H19.6974L23.2166 42.381C23.2166 42.381 23.4593 43.1011 24.0445 43.1011C24.6297 43.1011 24.8724 42.381 24.8724 42.381L28.3916 36.0887H38.6444C41.5999 36.0887 43.9946 33.6941 43.9946 30.7385V13.3502C43.9946 10.3947 41.5999 8 38.6444 8H38.6498ZM16.5666 23.3711C16.5504 26.5505 13.2631 26.6395 13.2631 26.6395C11.993 26.6395 11.2757 25.7982 11.2757 25.7982V26.3699H8.88371V16.5C8.88371 16.5 8.87292 16.4973 8.88371 16.4946V16.5C9.03202 16.5242 11.2757 16.4946 11.2757 16.4946V20.2699C11.8393 19.3099 13.4654 19.3261 13.4654 19.3261C17.0088 19.6551 16.5666 23.3711 16.5666 23.3711ZM20.7815 19.6281V26.386H18.4381V19.6955C18.4381 18.7841 17.3082 18.5333 17.3082 18.5333V16.1737C21.0485 16.3247 20.7788 19.6281 20.7788 19.6281H20.7815ZM26.334 26.6449C24.1658 26.6449 22.4076 25.0269 22.4076 23.0287C22.4076 21.0304 24.1658 19.4124 26.334 19.4124C28.5021 19.4124 30.2604 21.0304 30.2604 23.0287C30.2604 25.0269 28.5021 26.6449 26.334 26.6449ZM39.1675 26.6449C39.1675 26.6449 39.1999 30.0778 35.7131 30.0778H34.6506V27.853H35.2897C35.2897 27.853 36.7567 27.9879 36.7378 25.728C36.7378 25.728 36.452 26.6422 34.3944 26.6422C34.3944 26.6422 31.4793 26.4319 31.4793 23.5869V22.5082C31.4793 22.5082 31.5467 19.558 34.7477 19.3234C34.7477 19.3234 36.0124 19.1886 36.7864 20.2349V19.5095H39.1621V26.6422L39.1675 26.6449Z" fill="#CFD1DA"/>
<path d="M35.4434 24.4768C36.2432 24.4768 36.8915 23.8284 36.8915 23.0287C36.8915 22.2289 36.2432 21.5805 35.4434 21.5805C34.6436 21.5805 33.9953 22.2289 33.9953 23.0287C33.9953 23.8284 34.6436 24.4768 35.4434 24.4768Z" fill="#CFD1DA"/>
</svg>
