<svg width="48" height="48" viewBox="0 0 48 48" fill="none" xmlns="http://www.w3.org/2000/svg">
<path fill-rule="evenodd" clip-rule="evenodd" d="M32 8H16C11.5817 8 8 11.5817 8 16V32C8 36.4183 11.5817 40 16 40H32C36.4183 40 40 36.4183 40 32V16C40 11.5817 36.4183 8 32 8ZM16 4C9.37258 4 4 9.37258 4 16V32C4 38.6274 9.37258 44 16 44H32C38.6274 44 44 38.6274 44 32V16C44 9.37258 38.6274 4 32 4H16Z" fill="#CFD1DA"/>
<path fill-rule="evenodd" clip-rule="evenodd" d="M24 30.8C27.7555 30.8 30.8 27.7555 30.8 24C30.8 20.2445 27.7555 17.2 24 17.2C20.2445 17.2 17.2 20.2445 17.2 24C17.2 27.7555 20.2445 30.8 24 30.8ZM24 34C29.5228 34 34 29.5228 34 24C34 18.4772 29.5228 14 24 14C18.4772 14 14 18.4772 14 24C14 29.5228 18.4772 34 24 34Z" fill="#CFD1DA"/>
<path d="M36.8 14.4C36.8 15.7255 35.7255 16.8 34.4 16.8C33.0745 16.8 32 15.7255 32 14.4C32 13.0745 33.0745 12 34.4 12C35.7255 12 36.8 13.0745 36.8 14.4Z" fill="#CFD1DA"/>
</svg>
